<svg width="147" height="147" viewBox="0 0 147 147" fill="none" xmlns="http://www.w3.org/2000/svg">
<g clip-path="url(#clip0_683_3309)">
<path fill-rule="evenodd" clip-rule="evenodd" d="M81.657 10.8786C79.4002 12.2549 78.878 13.8855 79.0051 19.1577C79.1106 23.5126 79.4057 24.1171 81.4273 24.1171C83.2891 24.1171 83.5489 23.5034 83.5489 19.1029C83.5489 14.4684 83.3949 14.6426 87.4922 14.6426C91.2576 14.6426 91.0128 14.1652 91.0187 21.5189C91.0257 30.355 91.8055 33.2362 95.2075 36.9954C101.574 44.0304 112.079 44.2568 118.72 37.5022C122.686 33.4674 123.457 30.9078 123.457 21.7699C123.457 14.0704 123.141 14.6426 127.4 14.6426C131.242 14.6426 130.922 13.7018 130.922 24.9756C130.922 35.6588 131.072 36.8837 132.693 39.4099C134.425 42.1092 137.067 43.7754 140.479 44.3208C142.837 44.6978 142.743 44.4575 142.632 49.7895L142.55 53.7854L125.036 62.2026C115.403 66.8324 107.37 70.5897 107.184 70.5526C106.998 70.5154 99.0199 66.7386 89.4547 62.1592L72.0634 53.8328L72.1355 49.2559L72.2079 44.6787L74.1972 44.312C80.1918 43.2061 83.3229 39.3536 83.4989 32.8665C83.6033 29.032 83.4354 28.6164 81.639 28.257C79.86 27.9012 79.1551 29.0093 78.9526 32.4781C78.6693 37.3313 77.0089 39.2485 72.5408 39.881C70.4185 40.1816 69.9239 40.4036 68.8526 41.5344C67.4506 43.0147 67.4708 42.6365 67.4708 67.4744V90.9834L61.9888 94.2721L56.5068 97.5609L55.1698 96.9431C53.9284 96.3691 53.2952 96.3184 46.2965 96.2324L38.7599 96.1394V77.8136V59.4882L46.1528 59.3695C52.9891 59.2604 53.6701 59.2023 55.1959 58.6033C65.533 54.5439 63.0303 39.0549 51.9516 38.5253L49.4438 38.4051L49.2546 36.2137C48.7959 30.9122 45.4083 27.5624 40.5058 27.5624H38.8282L38.7117 24.8944C38.4861 19.7424 37.4391 18.9493 30.8641 18.9493C24.2447 18.9493 23.2179 19.6972 23.0184 24.6643L22.9048 27.4922L20.7005 27.6201C15.7882 27.9042 12.8963 30.9621 12.4406 36.3534L12.266 38.4184L9.72955 38.5172C6.74398 38.6337 5.91453 39.1545 5.91453 40.9129C5.91453 42.5101 6.76677 43.1683 8.65939 43.0331C14.822 42.5928 52.7381 42.9511 53.6895 43.4586C58.7302 46.1476 58.0815 53.1617 52.6664 54.5251C50.5434 55.0599 10.5336 54.9507 8.69724 54.4053C6.17509 53.6564 4.59705 51.4716 4.5897 48.7179C4.58418 46.6051 4.35045 45.9749 3.38797 45.4769C-1.05547 43.1793 -1.37667 51.7887 2.9896 56.155C5.86382 59.0292 6.6363 59.2266 15.5757 59.3695L22.9687 59.4882V77.8136V96.1394L15.4321 96.2324L7.89536 96.325L6.02919 97.2136C-3.89956 101.94 -1.01725 116.63 9.93057 117.096L12.266 117.196L12.4491 119.393C12.8912 124.709 16.3626 128.051 21.4418 128.051H22.9687V130.43C22.9687 135.634 24.1186 136.52 30.8641 136.52C37.5383 136.52 38.4511 135.878 38.7073 130.995L38.8341 128.578L40.0171 129.723C41.7057 131.356 43.7645 132.572 46.0812 133.302L48.0907 133.936H88.8604C122.989 133.936 129.817 133.871 130.778 133.536C133.272 132.667 135.133 130.845 136.087 128.338C136.355 127.635 136.508 125.164 136.595 120.12L136.72 112.907L138.659 112.768C141.855 112.54 144.549 110.695 146.198 107.607L146.856 106.374V74.6483V42.9228L146.186 41.9831C145.352 40.813 143.632 39.9122 142.202 39.8953C139.671 39.8663 137.257 38.325 136.205 36.0656C135.525 34.6052 135.521 34.5357 135.519 24.4232C135.515 10.2914 135.541 10.3358 127.222 10.3358C119.34 10.3358 118.868 10.9657 118.865 21.4704C118.863 27.1743 118.799 28.0585 118.27 29.6292C115.506 37.834 105.62 40.4433 99.3871 34.6129C96.2391 31.6685 95.6073 29.3198 95.6073 20.5593C95.6073 13.1954 95.3641 12.249 93.1455 10.9867C91.5549 10.0815 83.0947 10.0021 81.657 10.8786ZM34.1661 25.5525V27.5624H30.8641H27.5625V25.5525V23.5431H30.8641H34.1661V25.5525ZM42.3724 32.6174C43.6957 33.2454 44.4671 34.6103 44.6869 36.7128L44.871 38.4727H30.8652H16.8598L17.0156 36.7514C17.2045 34.6706 17.8947 33.406 19.232 32.6912C20.6542 31.9305 40.7899 31.8666 42.3724 32.6174ZM101.935 48.8627C100.766 50.1177 101.422 52.322 103.073 52.6847L103.934 52.8736V56.4398C103.934 59.6657 103.885 60.0057 103.423 60.0057C101.724 60.0057 100.907 62.7017 102.241 63.9089C103.252 64.824 109.511 64.7222 110.275 63.7781C111.379 62.415 110.63 60.0057 109.102 60.0057C108.551 60.0057 108.528 59.8142 108.528 55.3976C108.528 49.0604 108.058 48.2343 104.455 48.2343C102.835 48.2343 102.425 48.3364 101.935 48.8627ZM89.4921 67.327C98.8777 71.8274 106.895 75.5098 107.308 75.5098C107.721 75.5098 115.626 71.8781 124.874 67.4395C134.122 63.0004 141.852 59.3038 142.052 59.224C142.345 59.1075 142.401 63.6193 142.339 82.1747L142.263 105.27L141.489 106.284C140.653 107.381 139.425 108.064 137.765 108.358L136.714 108.544L136.617 98.2712L136.52 87.9989L135.716 86.3613C132.693 80.2046 123.225 80.2057 121.054 86.3628C117.192 97.3187 101.992 97.5598 96.8822 86.7461C94.8988 82.5496 93.5795 81.833 87.8292 81.8289C82.9348 81.8253 82.4137 81.9859 77.3205 85.0662C75.0795 86.4216 72.98 87.6725 72.6551 87.8464L72.0645 88.1628V73.6535C72.0645 65.6736 72.1461 59.1446 72.2457 59.1446C72.3457 59.1446 80.1066 62.8266 89.4921 67.327ZM34.1661 77.8066V96.1816H30.8641H27.5625V77.8066V59.4316H30.8641H34.1661V77.8066ZM91.308 86.7108C91.6067 86.8707 92.4009 88.1305 93.0727 89.51C99.562 102.838 118.651 102.601 124.918 89.1139C126.074 86.6266 126.317 86.4197 128.088 86.4197C131.883 86.4197 131.911 86.541 132.009 103L132.091 116.854L117.223 116.852L102.355 116.851L98.7656 111.659C94.9565 106.148 94.7577 105.943 93.2303 105.943C90.3212 105.943 90.5013 108.001 93.8275 112.767C95.2803 114.849 96.4688 116.62 96.4688 116.703C96.4688 116.786 95.4559 116.854 94.2178 116.854H91.9669L85.461 107.529C77.9019 96.6939 78.6134 98.1636 80.395 97.0677C82.2902 95.9012 81.9779 95.7157 84.6389 99.5935C86.9876 103.016 87.3445 103.359 88.558 103.359C91.43 103.359 91.3851 101.073 88.4297 96.8468C85.7694 93.0428 85.9443 93.6095 86.8561 91.7459C87.2908 90.8569 87.651 89.5009 87.759 88.344L87.9383 86.4197H89.3514C90.1286 86.4197 91.0088 86.5506 91.308 86.7108ZM82.8077 89.4435C82.3722 90.3612 80.9713 91.2803 70.3274 97.6358C57.6997 105.176 57.244 105.385 55.7424 104.333C55.0971 103.882 55.3767 103.696 69.1007 95.458C84.2586 86.3595 84.2744 86.3525 82.8077 89.4435ZM80.5538 108.672L86.1674 116.71L83.9609 116.794C81.9429 116.872 81.7147 116.823 81.2881 116.225C81.0312 115.865 78.7387 112.598 76.193 108.963L71.5647 102.355L73.0347 101.428C74.9237 100.238 74.1314 99.4748 80.5538 108.672ZM50.6606 101.021C50.5103 101.156 48.3171 102.503 45.7861 104.014C39.5489 107.739 37.7015 109.692 36.151 114.198C35.4046 116.367 35.2098 119.49 35.6857 121.663L36.0786 123.457H28.199C18.2004 123.457 17.4026 123.128 17.0138 118.841L16.8598 117.141H23.5031C29.7638 117.141 30.1795 117.107 30.7208 116.567C31.4569 115.83 31.4694 114.262 30.7465 113.368L30.1978 112.69L19.3338 112.547C9.9427 112.423 8.3529 112.339 7.60834 111.928C3.0609 109.419 3.81317 102.565 8.79941 101.07C9.87214 100.749 51.0171 100.7 50.6606 101.021ZM71.6338 110.581C73.8447 113.758 75.6965 116.469 75.7491 116.605C75.8017 116.742 74.8182 116.854 73.5632 116.854H71.2821L67.7641 111.814C65.8288 109.043 64.293 106.734 64.3511 106.683C64.6234 106.443 67.3444 104.806 67.4708 104.805C67.5498 104.805 69.423 107.404 71.6338 110.581ZM51.9733 107.199C53.3316 108.746 55.3525 109.462 58.0231 109.344L60.2571 109.245L62.8653 112.978L65.4738 116.71L52.9332 116.785C46.036 116.826 40.3438 116.811 40.2839 116.751C39.9042 116.371 41.5786 113.187 42.8773 111.818C44.0019 110.632 50.353 106.291 51.0424 106.237C51.0869 106.233 51.5059 106.666 51.9733 107.199ZM132.005 123.994C131.842 126.85 131.377 127.937 129.95 128.801C128.874 129.453 52.8112 129.823 49.1278 129.194C45.1632 128.518 41.4088 125.449 40.615 122.237L40.4202 121.447H86.285H132.15L132.005 123.994ZM34.1661 130.06V132.07H30.8641H27.5625V130.06V128.051H30.8641H34.1661V130.06Z" fill="black"/>
</g>
<defs>
<clipPath id="clip0_683_3309">
<rect width="147" height="147" fill="white"/>
</clipPath>
</defs>
</svg>
